<?xml version="1.0" encoding="utf-8"?>
<!-- Generator: Adobe Illustrator 25.2.3, SVG Export Plug-In . SVG Version: 6.00 Build 0)  -->
<svg version="1.1" id="Слой_1" xmlns="http://www.w3.org/2000/svg" xmlns:xlink="http://www.w3.org/1999/xlink" x="0px" y="0px"
	 viewBox="0 0 300.2 241.9" style="enable-background:new 0 0 300.2 241.9;" xml:space="preserve">
<style type="text/css">
	.st0{fill:#FDC615;}
	.st1{fill:none;stroke:#FEC605;stroke-miterlimit:10;}
	.st2{fill:#FEC605;stroke:#FEC605;stroke-width:0.25;stroke-miterlimit:10;}
	.st3{display:none;fill:none;stroke:#000000;stroke-width:5;stroke-miterlimit:10;}
	.st4{fill:none;stroke:#FEC605;stroke-width:5;stroke-linecap:round;stroke-linejoin:round;stroke-miterlimit:10;}
	.st5{fill:#FFFFFF;}
</style>
<path class="st0" d="M141.4,66.8c0.1,0,0.2,0,0.3-0.1c0.1,0,0.4,0,0.8,0c0.2,0,0.4,0,0.7,0.1c0.1,0,0.2,0.1,0.4,0.2
	c0.2,0.1,0.3,0.2,0.4,0.3c0.1,0.1,0.2,0.2,0.2,0.3c0.1,0.1,0.1,0.2,0.2,0.3c0,0,0.1,0.1,0.2,0.1c0.1,0,0.2,0,0.3,0
	c0.1,0,0.1,0,0.2-0.1c0,0,0.1-0.1,0.2-0.1c0,0,0.1-0.1,0.2-0.2c0.1-0.2,0-0.2,0.1-0.3c0.1-0.1,0.2-0.1,0.2-0.1c0,0,0,0,0.1-0.1
	c0.1-0.1,0.1-0.1,0.2-0.1c0.1,0,0.1,0,0.3-0.1c0.1,0,0.2,0,0.2,0c0.1,0,0.1,0,0.2,0c0.1,0,0.1,0,0.2,0c0.1,0,0.1,0,0.2,0
	c0.1,0,0.1,0,0.2,0c0.1,0,0.1,0,0.2,0c0.1,0,0.1,0,0.2,0.1c0.1,0,0.1,0.1,0.2,0.1c0.1,0.1,0.2,0.1,0.2,0.2c0.1,0,0.1,0.1,0.2,0.2
	c0.1,0.1,0.1,0.1,0.2,0.2c0.1,0.1,0.1,0.3,0.2,0.4c0,0.1,0,0.3,0.1,0.4c0,0.2,0,0.5,0,0.6c0,0.1,0,0.2-0.1,0.4
	c0,0.1-0.1,0.2-0.2,0.3c-0.1,0.1-0.1,0.1-0.2,0.2c-0.1,0.1-0.2,0.1-0.3,0.2c0,0-0.1,0.1-0.2,0.1c-0.1,0.1-0.1,0.1-0.1,0.2
	c0,0.1,0,0.1,0,0.2c0,0.1,0,0.2,0.1,0.3c0.1,0.1,0.2,0.2,0.2,0.2c0.1,0,0.1,0,0.2,0.1c0.1,0,0.1,0.1,0.1,0.1c0.1,0,0.1,0.1,0.2,0.2
	c0.1,0.1,0.1,0.2,0.2,0.3c0,0.1,0.1,0.2,0.1,0.3c0,0.1,0,0.2,0.1,0.2c0,0.1,0,0.2,0,0.3c0,0.1,0,0.1,0,0.2c0,0.1,0,0.1-0.1,0.2
	c0,0.1-0.1,0.1-0.1,0.2c-0.1,0.1-0.1,0.2-0.2,0.2c0,0.1-0.1,0.1-0.1,0.2c-0.1,0.1-0.2,0.2-0.3,0.3c-0.1,0.1-0.3,0.1-0.4,0.2
	c-0.1,0-0.2,0.1-0.3,0.1c-0.1,0-0.2,0-0.3,0c-0.1,0-0.2,0-0.3,0c-0.1,0-0.2,0-0.3-0.1c-0.1,0-0.2,0-0.3-0.1c-0.1,0-0.2-0.1-0.3-0.1
	c-0.1,0-0.2-0.1-0.2-0.2c-0.1-0.1-0.1-0.1-0.2-0.1c-0.1-0.1-0.1-0.1-0.2-0.2c-0.1-0.1-0.2-0.1-0.3-0.2c0,0-0.1-0.1-0.2-0.1
	c-0.1,0-0.1,0-0.2,0c-0.1,0-0.1,0-0.2,0c-0.1,0-0.2,0.1-0.2,0.1c-0.1,0.1-0.1,0.2-0.2,0.2c-0.1,0.1-0.1,0.2-0.1,0.2
	c0,0-0.1,0.1-0.1,0.2c-0.1,0.1-0.1,0.1-0.2,0.2c-0.1,0-0.2,0.1-0.3,0.2c-0.1,0-0.2,0.1-0.3,0.1c-0.1,0-0.2,0-0.4,0
	c-0.1,0-0.2,0-0.3,0c-0.1,0-0.2,0-0.3-0.1c-0.2-0.1-0.3-0.1-0.5-0.2c-0.1,0-0.2-0.1-0.3-0.2c-0.1-0.1-0.2-0.1-0.3-0.2
	c-0.1-0.1-0.2-0.2-0.4-0.3c-0.1-0.1-0.2-0.2-0.2-0.3c-0.1-0.1-0.1-0.2-0.1-0.3c0-0.1-0.1-0.3-0.1-0.4c0-0.1,0-0.2,0-0.2
	c0-0.1,0-0.2,0-0.3c0-0.1,0-0.1,0-0.1c0-0.1,0-0.1,0.1-0.1c0,0,0.1-0.1,0.1-0.1c0.1-0.1,0.2-0.2,0.2-0.3c0.1-0.1,0.2-0.2,0.2-0.3
	c0-0.1,0.1-0.1,0.1-0.2c0,0,0.1-0.1,0.1-0.2c0,0,0-0.1,0-0.1c0,0,0-0.1,0-0.2c0-0.1-0.1-0.2-0.2-0.3c-0.1-0.1-0.2-0.1-0.2-0.2
	c-0.1-0.1-0.2-0.2-0.3-0.2c0,0-0.2-0.1-0.3-0.2c0,0-0.1-0.1-0.1-0.1c0,0,0-0.1-0.1-0.1c0,0,0-0.1,0-0.1c0,0,0-0.1,0-0.1
	c0-0.1,0-0.1,0-0.2c0-0.1,0-0.2,0-0.3c0-0.1,0-0.2,0-0.2c0-0.1,0-0.2,0.1-0.3c0-0.1,0.1-0.1,0.1-0.2c0-0.1,0.1-0.2,0.2-0.3
	c0.1-0.1,0.1-0.2,0.2-0.2c0,0,0.1-0.1,0.2-0.1c0.1,0,0.1-0.1,0.2-0.1c0.1,0,0.1-0.1,0.2-0.1C141.2,66.8,141.3,66.8,141.4,66.8z"/>
<path class="st1" d="M144.3,70.4C144.3,70.4,144.3,70.4,144.3,70.4"/>
<path class="st1" d="M144.2,70.6C144.2,70.6,144.2,70.6,144.2,70.6"/>
<circle class="st0" cx="164.2" cy="90.9" r="3.8"/>
<path class="st2" d="M162.7,80.9c0.7,0.4,1.3,0.6,1.6,0.7c0.4,0.1,0.7,0.2,1.3,0.3c1.2,0.3,1.3,0.2,1.9,0.4c0.5,0.1,1.2,0.3,1.9,0.8
	c0.4,0.3,0.8,0.7,1.5,1.5c0.6,0.7,0.9,1,1.1,1.4c0.5,0.9,0.6,1.7,0.7,2.4c0.1,0.5,0.1,1.4,0,2.5c-0.1,0.8-0.3,1.4-0.6,2.1
	c-0.3,0.8-0.7,1.8-1.4,2.9c-0.3,0.5-0.6,1.1-1,1.8c-0.2,0.3-0.9,1.6-1.8,3.3c-0.5,1-0.9,1.7-1.5,2.6c-0.2,0.3-0.6,1-1.1,2
	c-0.9,1.5-1.3,2.2-1.9,3.2c-1.1,1.8-0.9,1.5-1.3,2.1c-0.2,0.3-0.5,0.9-1,1.6c-0.2,0.3-0.5,0.6-1,0.9c-0.2,0.1-0.5,0.3-0.9,0.3
	c-0.4,0-0.8-0.3-0.9-0.4c-0.5-0.5-0.6-1.2-0.7-1.8c-0.2-1.8-0.1-3.1-0.1-3.1c0-1.6,0-1.2,0-3.6c0-0.6,0-1.6,0.1-3.5
	c0-0.8,0-1.6,0-2.4c0-0.7,0.1-1.2-0.1-1.9c-0.1-0.4-0.3-0.8-0.4-1c-0.3-0.5-0.6-0.8-0.8-1.1c-0.6-0.9-0.8-1-1-1.4
	c-0.1-0.3-0.3-0.7-0.3-1.2c0-0.1,0-0.4,0.2-1.2c0.1-0.5,0.3-0.9,0.4-1.2c0-0.4,0.1-0.9-0.2-1.5c-0.1-0.2-0.2-0.4-0.7-1
	c-1.3-1.4-1.2-1.3-1.3-1.4c-0.6-0.6-1.1-1-1.6-1.6c-1.9-1.8-1.8-1.6-2.4-2.2c-0.6-0.6-0.6-0.6-2-2c-0.5-0.5-1-0.9-1.3-1.2
	c-0.2-0.1-0.5-0.4-1.1-0.4c-0.3,0-0.5,0.1-0.6,0.1c-0.4,0.1-0.5,0.3-0.8,0.4c-0.3,0.2-0.9,0.2-2,0.1c-0.7,0-0.8-0.1-1-0.1
	c-0.3-0.1-0.5-0.3-0.8-0.6c-0.5-0.4-0.5-0.6-0.9-0.9c-0.3-0.2-0.6-0.3-0.8-0.4c-0.7-0.2-1.3-0.2-1.9-0.2c-0.8,0-1.5,0-2.3,0.1
	c-0.6,0-1.2,0-2.3,0.1c-1.4,0-2.1,0-3.4,0c-4.7,0-5.6,0.2-6.4-0.6c-0.2-0.2-0.8-0.8-0.8-1.6c0-1.4,1.6-2.4,5.1-4.3
	c4.9-2.7,5.6-3,8.4-4.6c2.4-1.3,3.4-2,5.7-3c1.5-0.6,3.3-1.3,5.6-1.3c1.5,0,2.3,0.4,2.6,0.5c1.2,0.6,1.9,1.6,2.4,2.3
	c0.3,0.4,0.7,1,1,1.8c0.5,1.3,0.5,2.3,0.5,2.3c0,0.5,0,0.8,0.2,1.3c0.2,0.4,0.4,0.6,0.7,0.9c0.5,0.6,0.7,0.9,1,1.5
	c0.4,0.7,1.1,1.4,2.3,2.7c0.6,0.6,1.2,1.2,2.4,2.4c0.7,0.7,1.1,1.1,1.6,1.6C161.9,80.4,162.4,80.7,162.7,80.9z M119.7,68.3
	c-1,0.8-2.2,1.7-3.1,3.4c-0.4,0.7-1.2,2.3-1.1,4.4c0.3,3.3,3.1,5.2,3.3,5.3c1.5,0.9,3.1,1,6.4,1.2c0.4,0,0.1,0,4.1,0.1
	c1.3,0-0.3,0,3.5,0.1c1.5,0,2,0.1,2.8,0.3c1,0.3,2,0.8,2,0.8c0.6,0.3,0.7,0.4,1.1,0.6c0.8,0.3,1.5,0.3,2.1,0.4
	c1.7,0.1,2.6,0.1,3.4,0.4c1,0.3,0.6,0.6,3.5,3c0.3,0.2,0.9,0.8,1.5,1.6c0.2,0.3,0.5,0.7,0.6,1.2c0.1,0.4,0.1,0.6,0.1,2
	c-0.1,1.7-0.1,1.9,0,2.4c0.2,0.7,0.5,1.2,0.5,1.2c0.3,0.5,0.5,0.5,0.7,0.9c0.2,0.4,0.3,0.8,0.4,1.3c0.1,1.3,0.1,2.4,0.1,2.4
	c0,0.5,0-0.5,0.1,3.3c0,2.7,0,2.6,0,3.4c0.1,1.7,0.1,2.5,0.2,3.6c0.3,1.7,0.4,2.9,1.2,4.2c0.3,0.4,1.1,1.7,2.7,2.5
	c2.9,1.5,5.9,0.2,6.3,0c0.5-0.2,1.6-0.8,4.2-4.3c1.7-2.3,2.8-4.2,3.9-6.1c2.5-4.4,3.8-6.5,4.3-7.6c2.6-5.2,3.9-7.8,3.8-11
	c0-1.4-0.3-5.4-3.2-8.7c-0.7-0.8-2.4-2.7-5-3.5c-1.8-0.5-2.2-0.1-3.9-0.7c-1.4-0.5-2.4-1.5-4.5-3.5c-3.1-3-3.7-4.4-3.8-4.9
	c-0.4-1.1-0.2-1.5-0.4-2.5c-0.8-4.2-4.9-6.8-5.6-7.2c-0.3-0.2-4.9-3.1-10.3-1.8c-0.7,0.2-2.3,1-5.5,2.6c-3.4,1.7-5.9,3-6.9,3.5
	C125.3,64.6,122.7,66,119.7,68.3z"/>
<path class="st3" d="M43.8,45.4c0.6-1.8,1.7-3.1,3-4.3c2.5-2.4,4.9-3.6,8.5-5.6c1.3-0.7,3.5-2,7.9-4.6c4.3-2.5,6.4-3.8,9.1-5.4
	c0,0,2.8-1.7,7.4-4c1.1-0.6,2.3-1.1,3.9-1.5c0.9-0.2,2.7-0.5,5-0.1c2,0.3,3.4,1.2,6.3,2.8c3.9,2.2,5.8,3.3,6.3,3.6
	c3.7,2.2,8.1,4.9,13.4,7.6c2.1,1.1,4.1,2.3,8.2,4.7c0.6,0.3,1.8,1.1,3.1,2.4c1.4,1.4,2.1,2.6,2.4,3.1c0.8,1.5,1.2,2.8,1.3,3.3
	c0.4,1.9,0.4,3.3,0.3,3.9c-0.2,4.4-0.1,8.8-0.2,13.2c-0.1,4.2,0,7.9,0,8.5c0,1.2,0.1,3.5,0.2,7.1c0,2.4,0.1,4.6-0.3,7.4
	c-0.2,1.4-0.5,2.4-1,3.6c-0.1,0.3-0.8,1.7-2,3.2c-1.2,1.4-2.3,2.3-3.3,3c-0.6,0.4-1.6,1-3.5,2.2c-2.2,1.3-3.4,2-3.4,2
	c-6.8,4-7.3,4.3-10,5.9c-2.1,1.3-2.1,1.4-4,2.5c-2.1,1.3-1.5,0.8-5.6,3.2c-1.5,0.9-2.3,1.4-3.7,1.9c-1.4,0.6-2.6,0.8-2.9,0.9
	c-0.7,0.1-3.4,0.7-6.5,0.1c-1.8-0.3-2.9-0.9-7.1-3.2c-4.5-2.6-8-4.6-8.4-4.9c-8.5-5-6.8-4.1-8.6-5.1c-3.3-1.9-4.7-2.7-7.1-4.3
	c-4-2.6-5.1-3.6-6.1-4.9c-1.5-2-2.2-4.1-2.5-5.2c-0.4-1.4-0.4-2.5-0.5-5C43,80.4,43,78.8,43,75.7c0-2.7,0-1.1-0.1-9.7
	c0,0,0-6.4,0-11.4c0-2.1,0.1-1.3,0.1-3.6c0-1.4,0-1.9,0.1-2.7C43.2,47.9,43.4,46.6,43.8,45.4z"/>
<path class="st4" d="M143.6,133.2l-34-20.1c-2.7-1.6-4.4-4.5-4.4-7.7l-0.4-39.5c0-3.3,1.7-6.3,4.5-7.9l33.2-19.2
	c2.8-1.6,6.3-1.6,9.1,0l34,20.1c2.7,1.6,4.4,4.5,4.4,7.7l0.4,39.5c0,3.3-1.7,6.3-4.5,7.9l-33.2,19.2
	C149.9,134.9,146.4,134.9,143.6,133.2z"/>
<g>
	<path class="st5" d="M123.3,189c0.4,0.5,1,1,1.1,1.6c0.8,5.6,1.6,11.1,1.6,16.9c0,2-0.2,4-0.4,5.9c-0.4,2.7-3.5,6.3-5.7,6.3
		c-1.9,0-4.5-1.3-5.4-2.7c-4.4-6.2-8.7-12.4-12-19.2c-4.1-8.3-7.3-17-11.1-25.6c-0.3-0.8-1.2-1.3-2-2.1c-0.5,0.8-1.5,1.7-1.7,2.5
		c-0.7,4.7-1.3,9.5-1.9,14.2c-0.3,2.6-1,5.4-3.8,5.9c-0.5,0-2.6-3.2-2.9-5.5c-0.2-1.9-0.3-3.9-0.3-5.9c0-2.7,0.5-5.6,0.5-8.3
		c0-3.3-1.8-3.4-5-7.1c0.9-0.1,1.8-0.7,2.8-0.7h1.1c1.6,0,2.6-0.6,2.9-2.4c1.3-7.6,2.7-15.2,4.1-22.8v-1c0.7-4.1,2.5-6.5,5.3-6.5
		c2.5,0,3.9,1.5,3.9,4.6c0,0.9-0.1,1.9-0.3,3.1c-1.1,6.1-2.4,12.2-3.6,18.4c-0.1,0.2-0.1,0.3-0.1,0.5c0,0.8,0.3,1.8,0.5,2.5
		c1.1-0.3,2.4-0.4,3.1-0.9c8.2-6.6,18.5-17.8,18.5-27.8c0-7.3-3.5-11.2-9.7-11.2c-6.1,0-11.6,1.7-16.6,5c-1,0.6-2.4,0.3-3.6,0.5
		c0.6-1.2,0.7-2.9,1.6-3.4c5.4-4,11.3-6.1,17.5-6.1c2,0,4,0.2,6,0.6c5.5,1,9.7,8.2,9.7,14.9c0,7.3-5,14.8-9.4,20.3
		c-3.3,4.1-10.9,10.1-10.9,13.2c0,1.3,0.7,2.7,1.9,4.7c1.9,3.2,3.2,6.9,4.8,10.4c3.9,8.8,7.4,17,12,24.9c0.4,0.9,1.9,1.4,2.9,2
		c0.5-1.1,1.3-3,1.3-4.3c0-0.5-0.2-1-0.3-1.5h-0.5C120.1,198.7,120.8,191,123.3,189z"/>
	<path class="st5" d="M133.8,152.3c3.3,0,6.1,2.1,6.1,5.7c0,3.5-3.5,8.4-5.4,11.6c-2.4,3.9-7.5,5.3-7.5,10.4c0,1.9-0.3,4.7,3,4.7
		c2,0,3.8-1.1,5.8-1.1c1.1,0,1.7,0.5,1.7,1.5c0,4.1-6.2,7.3-10,7.3c-7.7,0-8.1-6.8-8.5-11.4C119.2,170.6,124,152.3,133.8,152.3z
		 M134.2,157.9c-2.2,0-3.6,5.7-4.4,8c0,0.1-0.1,0.1-0.1,0.2c0,0.4,0.7,1.3,1.2,1.3c1.5,0,3.7-4.9,5.2-7.2
		C135.4,159.3,134.8,157.9,134.2,157.9z"/>
	<path class="st5" d="M151.2,132.5c0.8-3.9,1.5-11.8,5.2-11.8c2.6,0.3,3.2,2.8,3.2,5.6c-3,15.7-6.2,31-8.7,46.7
		c-0.1,0.6-0.3,1.3-0.3,1.9c0,0.8,0.2,1.3,1.1,1.3c0.4,0,0.9-0.1,1.5-0.3c0.2-0.1,1.7,1.1,1.7,1.8c0,4.4-4.4,13.1-9.1,13.1
		c-2.7,0-3.4-3.4-3.9-6.8C143.6,166.7,147.7,149.5,151.2,132.5z"/>
	<path class="st5" d="M182.1,163.6c0,0.5-0.1,1.2-0.2,1.8c-0.9,5.8-1.7,11.7-2.4,17.5c-0.4,3.6-0.9,7.7-3.3,7.7
		c-0.9,0-1.7-0.7-2.6-1.9c-2.8-3.3-1-6.3-2.7-6.3c-0.6,0-4,3-7.4,3c-3,0-4.9-2.5-4.9-5.6c0-7.2,4.1-14.6,9.7-18.8
		c2-1.5,5-2.2,7.4-3.4C179.9,158.1,182.1,160.1,182.1,163.6z M173,163.8c-0.9,0-1.8,0.2-2.3,0.7c-2.6,3.6-7.1,9.6-7.1,12.4
		c0,0.5,0.5,2.3,1.7,2.3c3.2,0,7.4-8.2,10.3-12.9C174.5,164.4,174.3,163.8,173,163.8z"/>
	<path class="st5" d="M198.7,155.4c1.5,4.3,2.4,6.2,3.6,6.2c1.2,0,2.7-1.5,5.4-4.5c2.1-2.3,4.2-5.8,7.5-5.8c1.1,0,2.3,0.3,3.5,0.5
		c-0.4,1.3-0.5,2.8-1.2,3.8c-4.3,6-11.9,12.9-11.9,16.7c0,3.2,4.8,11.8,6.3,18.1c0.1,0.3,0.1,0.5,0.1,0.8c0,1.6-1.2,3.5-1.6,5.1
		c-1.5-1-3.7-1.7-4.6-3.1c-3.1-4.7-6.9-14.1-8.9-14.1c-2.4,0-9.6,9.9-13.6,14c-1.1,1.2-2.9,1.6-4.2,2.3c0-0.8-0.1-1.6-0.1-2.5
		c0-0.8,0.1-1.5,0.5-2.1c3.9-5.9,7.9-11.6,12.2-16.9c1.4-1.7,2.2-3.1,2.2-4.9c0-2.6-4.5-10.5-4.5-13.7c0-2,1.6-3.6,4-3.6
		C196,151.8,197.7,152.6,198.7,155.4z"/>
</g>
</svg>
